<?xml version="1.0" standalone="no"?>
<svg fill="#292d3e" viewBox="0 0 1440 270" version="1.1" xmlns="http://www.w3.org/2000/svg">
    <path d="M0,162L60,175.5C120,189,240,216,360,198C480,180,600,117,720,112.5C840,108,960,162,1080,193.5C1200,225,1320,234,1440,198C1560,162,1680,81,1800,45C1920,9,2040,18,2160,27C2280,36,2400,45,2520,76.5C2640,108,2760,162,2880,166.5C3000,171,3120,126,3240,126C3360,126,3480,171,3600,189C3720,207,3840,198,3960,202.5C4080,207,4200,225,4320,211.5C4440,198,4560,153,4680,144C4800,135,4920,162,5040,175.5C5160,189,5280,189,5400,175.5C5520,162,5640,135,5760,117C5880,99,6000,90,6120,72C6240,54,6360,27,6480,22.5C6600,18,6720,36,6840,54C6960,72,7080,90,7200,121.5C7320,153,7440,198,7560,211.5C7680,225,7800,207,7920,184.5C8040,162,8160,135,8280,121.5C8400,108,8520,108,8580,108L8640,108L8640,270L8580,270C8520,270,8400,270,8280,270C8160,270,8040,270,7920,270C7800,270,7680,270,7560,270C7440,270,7320,270,7200,270C7080,270,6960,270,6840,270C6720,270,6600,270,6480,270C6360,270,6240,270,6120,270C6000,270,5880,270,5760,270C5640,270,5520,270,5400,270C5280,270,5160,270,5040,270C4920,270,4800,270,4680,270C4560,270,4440,270,4320,270C4200,270,4080,270,3960,270C3840,270,3720,270,3600,270C3480,270,3360,270,3240,270C3120,270,3000,270,2880,270C2760,270,2640,270,2520,270C2400,270,2280,270,2160,270C2040,270,1920,270,1800,270C1680,270,1560,270,1440,270C1320,270,1200,270,1080,270C960,270,840,270,720,270C600,270,480,270,360,270C240,270,120,270,60,270L0,270Z"/>
</svg>
